<svg width="32" height="12" viewBox="0 0 32 12" fill="none" xmlns="http://www.w3.org/2000/svg">
<path d="M31.511 0.575012L8.83191 10.2315C6.95124 11.028 5.37196 11.4263 4.09407 11.4263C2.64741 11.4263 1.59814 10.9195 0.94628 9.90601C0.537253 9.25501 0.416697 8.42921 0.584614 7.42859C0.753391 6.42798 1.19945 5.36107 1.92278 4.22785C2.52556 3.31076 3.51454 2.10521 4.88974 0.611179C4.42268 1.34546 4.08049 2.15205 3.87707 2.99818C3.51541 4.54129 3.84091 5.67451 4.85357 6.39784C5.33579 6.7354 5.99885 6.90418 6.84274 6.90418C7.51699 6.90418 8.27649 6.79568 9.12124 6.57868L31.511 0.575012Z" fill="#262626"/>
</svg>
