<svg width="32" height="10" viewBox="0 0 32 10" fill="none" xmlns="http://www.w3.org/2000/svg">
<path d="M20.0792 4.32831C23.6352 2.90747 25.8491 2.09114 31.7158 0.659973C28.5293 0.870515 21.4832 1.3536 16.6266 2.30168L20.0792 4.3296M9.02253 9.04547H13.6725C14.5935 7.65047 15.5093 6.97106 16.5762 6.21543C15.7659 5.90205 14.9512 5.6002 14.1324 5.30997C11.1654 6.61972 9.51465 8.37768 9.0264 9.04547M9.94219 3.97181C5.79595 5.45335 3.49161 7.06276 1.93515 9.04547H7.06953C7.5694 8.34926 9.47461 6.34201 13.0538 4.94572C12.0235 4.59814 10.9869 4.27342 9.94219 3.97181ZM12.0696 0.85114H0.71582C12.1626 2.91781 17.6793 5.57864 26.5492 9.33997C25.7909 8.77293 13.5666 1.57318 12.0709 0.85114" fill="black"/>
</svg>
