<svg width="32" height="24" viewBox="0 0 32 24" fill="none" xmlns="http://www.w3.org/2000/svg">
<path d="M31.3752 0.385326C30.8366 -0.303133 29.895 0.248409 29.4804 0.488659C26.5302 2.22724 26.0949 5.28849 25.0667 7.04645C24.2581 8.45437 22.9329 9.4877 21.7342 9.56778C20.8481 9.63108 19.8871 9.45928 18.9339 9.04466C16.5999 8.03587 15.3431 6.72999 15.0369 6.50008C14.4079 6.02216 9.57319 1.31403 5.6336 1.12158C5.6336 1.12158 5.1531 0.152826 5.03298 0.136034C4.74623 0.103742 4.45173 0.718576 4.23731 0.783159C4.04356 0.851617 3.70385 0.121826 3.50752 0.154117C3.3099 0.179951 3.11744 0.911034 2.73252 1.28691C2.44835 1.56203 2.10477 1.54524 1.90973 1.88495C1.84256 2.00895 1.86581 2.22724 1.7896 2.42745C1.62556 2.84078 1.0779 2.8847 1.07273 3.32774C1.07273 3.81987 1.53386 3.91416 1.93685 4.25774C2.25719 4.53158 2.27915 4.72533 2.65244 4.8532C2.98569 4.96687 3.46877 4.61166 3.8976 4.73953C4.2554 4.84416 4.59898 4.92037 4.67519 5.28591C4.74494 5.61658 4.67519 6.13583 4.23602 6.0777C4.09136 6.05833 3.4636 5.85295 2.68861 5.93562C1.75215 6.03508 0.682647 6.33474 0.578022 7.36937C0.525063 7.94674 1.24194 8.62228 1.94073 8.48795C2.41994 8.39624 2.1939 7.83437 2.4561 7.56312C2.80098 7.21437 4.74494 8.78245 6.55327 8.78245C7.31923 8.78245 7.88498 8.5887 8.44815 8.00099C8.49981 7.96354 8.56827 7.86924 8.64835 7.85891C8.73844 7.8814 8.82376 7.9199 8.90023 7.97258C10.3611 9.1312 11.4629 11.4601 16.8181 11.4872C17.5699 11.4962 18.4327 11.8476 19.138 12.4908C19.758 13.0501 20.1248 13.944 20.4774 14.8481C21.0174 16.2082 21.9771 17.5206 23.4379 18.9853C23.5154 19.0732 24.7167 19.9928 24.8071 20.0613C24.8226 20.0742 24.9156 20.277 24.8756 20.3907C24.8497 21.2819 24.7167 23.8394 26.6387 23.9466C27.1114 23.9725 26.9939 23.6482 26.9939 23.417C26.9874 22.9766 26.9099 22.5322 27.1399 22.0737C27.4666 21.4563 26.4604 21.1579 26.4824 19.8055C26.5069 18.7929 25.6493 18.9647 25.2114 18.191C24.966 17.7479 24.7361 17.5038 24.7593 16.969C24.8536 13.8949 24.0915 11.8695 23.7195 11.38C23.4263 11.0002 23.1731 10.8595 23.4521 10.6825C25.0538 9.62978 25.4219 8.64941 25.4219 8.64941C26.2744 6.65895 27.0443 4.84545 28.1021 4.03816C28.3166 3.88316 28.8629 3.46983 29.2026 3.31483C30.1882 2.84724 30.7178 2.56824 30.9955 2.29699C31.4553 1.8617 31.8157 0.936867 31.3752 0.385326Z" fill="black"/>
</svg>
