<svg width="25" height="25" viewBox="0 0 25 25" fill="none" xmlns="http://www.w3.org/2000/svg">
<path d="M6.00531 11.3225H21.0053C21.2042 11.3225 21.395 11.4015 21.5356 11.5422C21.6763 11.6828 21.7553 11.8736 21.7553 12.0725C21.7553 12.2714 21.6763 12.4622 21.5356 12.6028C21.395 12.7435 21.2042 12.8225 21.0053 12.8225H6.00531C5.8064 12.8225 5.61563 12.7435 5.47498 12.6028C5.33433 12.4622 5.25531 12.2714 5.25531 12.0725C5.25531 11.8736 5.33433 11.6828 5.47498 11.5422C5.61563 11.4015 5.8064 11.3225 6.00531 11.3225Z" fill="#262626"/>
<path d="M6.31581 12.0725L12.5363 18.2915C12.6771 18.4323 12.7563 18.6233 12.7563 18.8225C12.7563 19.0216 12.6771 19.2127 12.5363 19.3535C12.3955 19.4943 12.2045 19.5734 12.0053 19.5734C11.8061 19.5734 11.6151 19.4943 11.4743 19.3535L4.72431 12.6035C4.65446 12.5338 4.59905 12.451 4.56124 12.3599C4.52343 12.2688 4.50397 12.1711 4.50397 12.0725C4.50397 11.9738 4.52343 11.8761 4.56124 11.785C4.59905 11.6939 4.65446 11.6111 4.72431 11.5415L11.4743 4.79148C11.6151 4.65065 11.8061 4.57153 12.0053 4.57153C12.2045 4.57153 12.3955 4.65065 12.5363 4.79148C12.6771 4.93231 12.7563 5.12332 12.7563 5.32248C12.7563 5.52164 12.6771 5.71265 12.5363 5.85348L6.31581 12.0725Z" fill="#262626"/>
</svg>
