<svg width="25" height="25" viewBox="0 0 25 25" fill="none" xmlns="http://www.w3.org/2000/svg">
<path fill-rule="evenodd" clip-rule="evenodd" d="M11.2193 3.3545C11.3983 3.1398 11.6202 2.965 11.8709 2.84137C12.1216 2.71773 12.3954 2.64801 12.6747 2.63671C12.9539 2.6254 13.2325 2.67276 13.4923 2.77572C13.7522 2.87869 13.9876 3.03497 14.1833 3.2345L14.2913 3.3545L18.2233 8.0725H21.2083C21.4182 8.07205 21.6257 8.11594 21.8175 8.2013C22.0092 8.28665 22.1807 8.41153 22.3208 8.56778C22.4609 8.72402 22.5664 8.9081 22.6304 9.10795C22.6945 9.30781 22.7155 9.51893 22.6923 9.7275L22.6003 10.4935L22.5003 11.2335L22.4183 11.7875L22.3233 12.3825L22.2153 13.0075L22.0933 13.6555L21.9573 14.3165C21.8853 14.6495 21.8083 14.9835 21.7253 15.3155C21.5039 16.1935 21.226 17.0563 20.8933 17.8985L20.6723 18.4385L20.4583 18.9265L20.2563 19.3605L20.1623 19.5545L19.9133 20.0445C19.5933 20.6545 18.9893 21.0145 18.3503 21.0665L18.1903 21.0725H7.3103C6.96068 21.0752 6.61689 20.9829 6.3157 20.8053C6.0145 20.6278 5.76722 20.3717 5.6003 20.0645L5.3683 19.6145L5.1883 19.2445C5.15625 19.1763 5.12458 19.108 5.0933 19.0395L4.8933 18.5905C4.43675 17.53 4.06622 16.4344 3.7853 15.3145C3.73104 15.097 3.67904 14.879 3.6293 14.6605L3.4873 14.0125L3.3603 13.3785L3.2483 12.7655L3.1483 12.1785L3.0613 11.6245L2.9873 11.1115L2.8973 10.4285L2.8313 9.8725C2.82554 9.82151 2.81987 9.77051 2.8143 9.7195C2.79334 9.52299 2.81173 9.32427 2.86841 9.13495C2.92508 8.94563 3.0189 8.76949 3.14439 8.61682C3.26987 8.46415 3.42452 8.338 3.59929 8.24575C3.77406 8.15349 3.96545 8.09698 4.1623 8.0795L4.2983 8.0725H7.2873L11.2193 3.3545ZM10.7163 12.7945C10.6487 12.5586 10.4966 12.3557 10.2891 12.2247C10.0816 12.0936 9.83308 12.0434 9.59096 12.0837C9.34884 12.1239 9.12998 12.2518 8.97607 12.443C8.82215 12.6342 8.74393 12.8754 8.7563 13.1205L8.7693 13.2365L9.2693 16.2365L9.2943 16.3505C9.36195 16.5864 9.51401 16.7893 9.72153 16.9203C9.92904 17.0514 10.1775 17.1016 10.4196 17.0613C10.6618 17.0211 10.8806 16.8932 11.0345 16.702C11.1885 16.5108 11.2667 16.2696 11.2543 16.0245L11.2413 15.9085L10.7413 12.9085L10.7163 12.7945ZM15.9193 12.0865C15.6776 12.0462 15.4295 12.096 15.2221 12.2265C15.0148 12.357 14.8625 12.5592 14.7943 12.7945L14.7693 12.9085L14.2693 15.9085C14.2276 16.1601 14.2835 16.4181 14.4258 16.6298C14.568 16.8415 14.7857 16.9909 15.0344 17.0474C15.2831 17.1038 15.544 17.0631 15.7637 16.9336C15.9834 16.804 16.1453 16.5955 16.2163 16.3505L16.2413 16.2365L16.7413 13.2365C16.7847 12.975 16.7225 12.707 16.5683 12.4914C16.4142 12.2757 16.1807 12.1301 15.9193 12.0865ZM12.7553 4.6345L9.8903 8.0725H15.6203L12.7553 4.6345Z" fill="#262626"/>
</svg>
