<svg width="25" height="25" viewBox="0 0 25 25" fill="none" xmlns="http://www.w3.org/2000/svg">
<path fill-rule="evenodd" clip-rule="evenodd" d="M17.7553 3.07251C16.6944 3.07251 15.677 3.49394 14.9269 4.24408C14.1767 4.99423 13.7553 6.01164 13.7553 7.07251C13.7553 8.13338 14.1767 9.15079 14.9269 9.90094C15.677 10.6511 16.6944 11.0725 17.7553 11.0725C18.8162 11.0725 19.8336 10.6511 20.5837 9.90094C21.3339 9.15079 21.7553 8.13338 21.7553 7.07251C21.7553 6.01164 21.3339 4.99423 20.5837 4.24408C19.8336 3.49394 18.8162 3.07251 17.7553 3.07251ZM3.75531 17.0725C3.75531 16.0116 4.17674 14.9942 4.92688 14.2441C5.67703 13.4939 6.69444 13.0725 7.75531 13.0725C8.81618 13.0725 9.83359 13.4939 10.5837 14.2441C11.3339 14.9942 11.7553 16.0116 11.7553 17.0725C11.7553 18.1334 11.3339 19.1508 10.5837 19.9009C9.83359 20.6511 8.81618 21.0725 7.75531 21.0725C6.69444 21.0725 5.67703 20.6511 4.92688 19.9009C4.17674 19.1508 3.75531 18.1334 3.75531 17.0725ZM13.7553 14.0725C13.7553 13.8073 13.8607 13.5529 14.0482 13.3654C14.2357 13.1779 14.4901 13.0725 14.7553 13.0725H20.7553C21.0205 13.0725 21.2749 13.1779 21.4624 13.3654C21.65 13.5529 21.7553 13.8073 21.7553 14.0725V19.0725C21.7553 19.6029 21.5446 20.1117 21.1695 20.4867C20.7945 20.8618 20.2857 21.0725 19.7553 21.0725H15.7553C15.2249 21.0725 14.7162 20.8618 14.3411 20.4867C13.966 20.1117 13.7553 19.6029 13.7553 19.0725V14.0725ZM3.75531 4.07251C3.75531 3.80729 3.86067 3.55294 4.0482 3.3654C4.23574 3.17787 4.49009 3.07251 4.75531 3.07251H10.7553C11.0205 3.07251 11.2749 3.17787 11.4624 3.3654C11.65 3.55294 11.7553 3.80729 11.7553 4.07251V9.07251C11.7553 9.60294 11.5446 10.1116 11.1695 10.4867C10.7945 10.8618 10.2857 11.0725 9.75531 11.0725H5.75531C5.22488 11.0725 4.71617 10.8618 4.3411 10.4867C3.96602 10.1116 3.75531 9.60294 3.75531 9.07251V4.07251Z" fill="#FFFFFF"/>
</svg>
