<svg width="25" height="25" viewBox="0 0 25 25" fill="none" xmlns="http://www.w3.org/2000/svg">
<path fill-rule="evenodd" clip-rule="evenodd" d="M3.27531 7.89551C2.75531 8.84251 2.75531 9.98751 2.75531 12.2755V13.7975C2.75531 17.6975 2.75531 19.6485 3.92731 20.8605C5.09831 22.0725 6.98431 22.0725 10.7553 22.0725H14.7553C18.5263 22.0725 20.4123 22.0725 21.5833 20.8605C22.7553 19.6485 22.7553 17.6985 22.7553 13.7975V12.2765C22.7553 9.98751 22.7553 8.84351 22.2353 7.89551C21.7173 6.94651 20.7683 6.35851 18.8713 5.18051L16.8713 3.93951C14.8663 2.69451 13.8633 2.07251 12.7553 2.07251C11.6473 2.07251 10.6453 2.69451 8.63931 3.93951L6.63931 5.18051C4.74231 6.35851 3.79431 6.94651 3.27531 7.89551ZM12.0053 18.0725C12.0053 18.2714 12.0843 18.4622 12.225 18.6028C12.3656 18.7435 12.5564 18.8225 12.7553 18.8225C12.9542 18.8225 13.145 18.7435 13.2856 18.6028C13.4263 18.4622 13.5053 18.2714 13.5053 18.0725V15.0725C13.5053 14.8736 13.4263 14.6828 13.2856 14.5422C13.145 14.4015 12.9542 14.3225 12.7553 14.3225C12.5564 14.3225 12.3656 14.4015 12.225 14.5422C12.0843 14.6828 12.0053 14.8736 12.0053 15.0725V18.0725Z" fill="#FFFFFF"/>
</svg>
