<svg width="25" height="25" viewBox="0 0 25 25" fill="none" xmlns="http://www.w3.org/2000/svg">
<path fill-rule="evenodd" clip-rule="evenodd" d="M8.75531 7.07251C8.75531 6.01164 9.17674 4.99423 9.92688 4.24408C10.677 3.49394 11.6944 3.07251 12.7553 3.07251C13.8162 3.07251 14.8336 3.49394 15.5837 4.24408C16.3339 4.99423 16.7553 6.01164 16.7553 7.07251C16.7553 8.13338 16.3339 9.15079 15.5837 9.90094C14.8336 10.6511 13.8162 11.0725 12.7553 11.0725C11.6944 11.0725 10.677 10.6511 9.92688 9.90094C9.17674 9.15079 8.75531 8.13338 8.75531 7.07251ZM8.75531 13.0725C7.42923 13.0725 6.15746 13.5993 5.21978 14.537C4.28209 15.4747 3.75531 16.7464 3.75531 18.0725C3.75531 18.8682 4.07138 19.6312 4.63399 20.1938C5.1966 20.7564 5.95966 21.0725 6.75531 21.0725H18.7553C19.551 21.0725 20.314 20.7564 20.8766 20.1938C21.4392 19.6312 21.7553 18.8682 21.7553 18.0725C21.7553 16.7464 21.2285 15.4747 20.2908 14.537C19.3532 13.5993 18.0814 13.0725 16.7553 13.0725H8.75531Z" fill="#FFFFFF"/>
</svg>
