<svg width="25" height="25" viewBox="0 0 25 25" fill="none" xmlns="http://www.w3.org/2000/svg">
<path d="M11.2553 4.57251H14.2553C14.2553 4.17469 14.0973 3.79315 13.816 3.51185C13.5347 3.23054 13.1531 3.07251 12.7553 3.07251C12.3575 3.07251 11.976 3.23054 11.6947 3.51185C11.4133 3.79315 11.2553 4.17469 11.2553 4.57251ZM9.75531 4.57251C9.75531 3.77686 10.0714 3.0138 10.634 2.45119C11.1966 1.88858 11.9597 1.57251 12.7553 1.57251C13.551 1.57251 14.314 1.88858 14.8766 2.45119C15.4392 3.0138 15.7553 3.77686 15.7553 4.57251H21.7553C21.9542 4.57251 22.145 4.65153 22.2856 4.79218C22.4263 4.93283 22.5053 5.1236 22.5053 5.32251C22.5053 5.52142 22.4263 5.71219 22.2856 5.85284C22.145 5.99349 21.9542 6.07251 21.7553 6.07251H20.9093L19.1018 19.3295C18.9792 20.2279 18.5353 21.0515 17.8522 21.6477C17.169 22.2439 16.293 22.5725 15.3863 22.5725H10.1243C9.21759 22.5725 8.34157 22.2439 7.65846 21.6477C6.97535 21.0515 6.5314 20.2279 6.40881 19.3295L4.60131 6.07251H3.75531C3.5564 6.07251 3.36563 5.99349 3.22498 5.85284C3.08433 5.71219 3.00531 5.52142 3.00531 5.32251C3.00531 5.1236 3.08433 4.93283 3.22498 4.79218C3.36563 4.65153 3.5564 4.57251 3.75531 4.57251H9.75531ZM11.2553 9.82251C11.2553 9.6236 11.1763 9.43283 11.0356 9.29218C10.895 9.15153 10.7042 9.07251 10.5053 9.07251C10.3064 9.07251 10.1156 9.15153 9.97498 9.29218C9.83433 9.43283 9.75531 9.6236 9.75531 9.82251V17.3225C9.75531 17.5214 9.83433 17.7122 9.97498 17.8528C10.1156 17.9935 10.3064 18.0725 10.5053 18.0725C10.7042 18.0725 10.895 17.9935 11.0356 17.8528C11.1763 17.7122 11.2553 17.5214 11.2553 17.3225V9.82251ZM15.0053 9.07251C14.8064 9.07251 14.6156 9.15153 14.475 9.29218C14.3343 9.43283 14.2553 9.6236 14.2553 9.82251V17.3225C14.2553 17.5214 14.3343 17.7122 14.475 17.8528C14.6156 17.9935 14.8064 18.0725 15.0053 18.0725C15.2042 18.0725 15.395 17.9935 15.5356 17.8528C15.6763 17.7122 15.7553 17.5214 15.7553 17.3225V9.82251C15.7553 9.6236 15.6763 9.43283 15.5356 9.29218C15.395 9.15153 15.2042 9.07251 15.0053 9.07251Z" fill="#262626"/>
</svg>
