<svg width="25" height="25" viewBox="0 0 25 25" fill="none" xmlns="http://www.w3.org/2000/svg">
<path d="M22.0053 12.0725H9.65031M5.28931 12.0725H3.50531M5.28931 12.0725C5.28931 11.4944 5.51899 10.9399 5.92782 10.531C6.33665 10.1222 6.89114 9.89252 7.46931 9.89252C8.04748 9.89252 8.60197 10.1222 9.0108 10.531C9.41963 10.9399 9.64931 11.4944 9.64931 12.0725C9.64931 12.6507 9.41963 13.2052 9.0108 13.614C8.60197 14.0228 8.04748 14.2525 7.46931 14.2525C6.89114 14.2525 6.33665 14.0228 5.92782 13.614C5.51899 13.2052 5.28931 12.6507 5.28931 12.0725ZM22.0053 18.6795H16.2573M16.2573 18.6795C16.2573 19.2578 16.0271 19.8129 15.6182 20.2219C15.2092 20.6308 14.6546 20.8605 14.0763 20.8605C13.4981 20.8605 12.9436 20.6298 12.5348 20.221C12.126 19.8122 11.8963 19.2577 11.8963 18.6795M16.2573 18.6795C16.2573 18.1012 16.0271 17.5471 15.6182 17.1382C15.2092 16.7293 14.6546 16.4995 14.0763 16.4995C13.4981 16.4995 12.9436 16.7292 12.5348 17.138C12.126 17.5469 11.8963 18.1014 11.8963 18.6795M11.8963 18.6795H3.50531M22.0053 5.46552H18.9003M14.5393 5.46552H3.50531M14.5393 5.46552C14.5393 4.88735 14.769 4.33286 15.1778 3.92403C15.5866 3.5152 16.1411 3.28552 16.7193 3.28552C17.0056 3.28552 17.2891 3.34191 17.5536 3.45147C17.8181 3.56102 18.0584 3.7216 18.2608 3.92403C18.4632 4.12646 18.6238 4.36678 18.7334 4.63127C18.8429 4.89576 18.8993 5.17924 18.8993 5.46552C18.8993 5.7518 18.8429 6.03528 18.7334 6.29977C18.6238 6.56426 18.4632 6.80458 18.2608 7.00701C18.0584 7.20945 17.8181 7.37002 17.5536 7.47958C17.2891 7.58914 17.0056 7.64552 16.7193 7.64552C16.1411 7.64552 15.5866 7.41584 15.1778 7.00701C14.769 6.59819 14.5393 6.04369 14.5393 5.46552Z" stroke="#262626" stroke-width="1.5" stroke-miterlimit="10" stroke-linecap="round"/>
</svg>
