<svg width="25" height="25" viewBox="0 0 25 25" fill="none" xmlns="http://www.w3.org/2000/svg">
<path d="M15.041 5.21534L12.7804 2.92963L10.4696 5.21534M12.7553 2.92963V13.2153M9.32673 7.50105H8.18388C7.57767 7.50105 6.99629 7.74187 6.56763 8.17052C6.13898 8.59918 5.89816 9.18056 5.89816 9.78677V17.7868C5.89816 18.393 6.13898 18.9744 6.56763 19.403C6.99629 19.8317 7.57767 20.0725 8.18388 20.0725H17.3267C17.9329 20.0725 18.5143 19.8317 18.943 19.403C19.3716 18.9744 19.6124 18.393 19.6124 17.7868V9.78677C19.6124 9.18056 19.3716 8.59918 18.943 8.17052C18.5143 7.74187 17.9329 7.50105 17.3267 7.50105H16.1839" stroke="#262626" stroke-linecap="round" stroke-linejoin="round"/>
</svg>
