<svg width="25" height="25" viewBox="0 0 25 25" fill="none" xmlns="http://www.w3.org/2000/svg">
<path d="M21.7553 21.0725L17.4123 16.7295M17.4123 16.7295C18.1552 15.9866 18.7445 15.1047 19.1465 14.1341C19.5486 13.1634 19.7555 12.1231 19.7555 11.0725C19.7555 10.0219 19.5486 8.98162 19.1465 8.01099C18.7445 7.04036 18.1552 6.15842 17.4123 5.41553C16.6694 4.67264 15.7875 4.08335 14.8168 3.68131C13.8462 3.27926 12.8059 3.07233 11.7553 3.07233C10.7047 3.07233 9.66439 3.27926 8.69376 3.68131C7.72313 4.08335 6.84119 4.67264 6.0983 5.41553C4.59797 6.91586 3.7551 8.95075 3.7551 11.0725C3.7551 13.1943 4.59797 15.2292 6.0983 16.7295C7.59863 18.2299 9.63352 19.0727 11.7553 19.0727C13.8771 19.0727 15.912 18.2299 17.4123 16.7295Z" stroke="#262626" stroke-width="1.5" stroke-linecap="round" stroke-linejoin="round"/>
</svg>
