<svg width="25" height="25" viewBox="0 0 25 25" fill="none" xmlns="http://www.w3.org/2000/svg">
<g clip-path="url(#clip0_35_2557)">
<path d="M12.7553 16.5725C13.1531 16.5725 13.5347 16.7305 13.816 17.0119C14.0973 17.2932 14.2553 17.6747 14.2553 18.0725C14.2553 18.4703 14.0973 18.8519 13.816 19.1332C13.5347 19.4145 13.1531 19.5725 12.7553 19.5725C12.3575 19.5725 11.976 19.4145 11.6946 19.1332C11.4133 18.8519 11.2553 18.4703 11.2553 18.0725C11.2553 17.6747 11.4133 17.2932 11.6946 17.0119C11.976 16.7305 12.3575 16.5725 12.7553 16.5725ZM12.7553 10.5725C13.1531 10.5725 13.5347 10.7305 13.816 11.0118C14.0973 11.2932 14.2553 11.6747 14.2553 12.0725C14.2553 12.4703 14.0973 12.8519 13.816 13.1332C13.5347 13.4145 13.1531 13.5725 12.7553 13.5725C12.3575 13.5725 11.976 13.4145 11.6946 13.1332C11.4133 12.8519 11.2553 12.4703 11.2553 12.0725C11.2553 11.6747 11.4133 11.2932 11.6946 11.0118C11.976 10.7305 12.3575 10.5725 12.7553 10.5725ZM12.7553 4.57251C13.1531 4.57251 13.5347 4.73054 13.816 5.01185C14.0973 5.29315 14.2553 5.67469 14.2553 6.07251C14.2553 6.47033 14.0973 6.85187 13.816 7.13317C13.5347 7.41447 13.1531 7.57251 12.7553 7.57251C12.3575 7.57251 11.976 7.41447 11.6946 7.13317C11.4133 6.85187 11.2553 6.47033 11.2553 6.07251C11.2553 5.67469 11.4133 5.29315 11.6946 5.01185C11.976 4.73054 12.3575 4.57251 12.7553 4.57251Z" fill="#262626"/>
</g>
<defs>
<clipPath id="clip0_35_2557">
<rect width="24" height="24" fill="white" transform="translate(0.75531 0.0725098)"/>
</clipPath>
</defs>
</svg>
