<svg width="25" height="25" viewBox="0 0 25 25" fill="none" xmlns="http://www.w3.org/2000/svg">
<path d="M21.7553 6.57252C21.7553 8.50251 20.1853 10.0725 18.2553 10.0725C16.3253 10.0725 14.7553 8.50251 14.7553 6.57252C14.7553 4.64252 16.3253 3.07252 18.2553 3.07252C20.1853 3.07252 21.7553 4.64252 21.7553 6.57252ZM19.7553 11.8625C19.2553 11.9925 18.7553 12.0725 18.2553 12.0725C16.7974 12.0699 15.4 11.4896 14.3691 10.4587C13.3383 9.42781 12.758 8.03039 12.7553 6.57252C12.7553 5.10251 13.3353 3.77252 14.2553 2.78252C14.0738 2.56006 13.845 2.38089 13.5855 2.25806C13.326 2.13523 13.0424 2.07185 12.7553 2.07252C11.6553 2.07252 10.7553 2.97251 10.7553 4.07252V4.36251C7.78531 5.24252 5.75531 7.97252 5.75531 11.0725V17.0725L3.75531 19.0725V20.0725H21.7553V19.0725L19.7553 17.0725V11.8625ZM12.7553 23.0725C13.8653 23.0725 14.7553 22.1825 14.7553 21.0725H10.7553C10.7553 21.6029 10.966 22.1117 11.3411 22.4867C11.7162 22.8618 12.2249 23.0725 12.7553 23.0725Z" fill="#262626"/>
</svg>
