<svg width="25" height="25" viewBox="0 0 25 25" fill="none" xmlns="http://www.w3.org/2000/svg">
<path d="M23.2553 9.63501C23.2553 16.1975 13.525 21.5094 13.1106 21.7288C13.0014 21.7875 12.8793 21.8183 12.7553 21.8183C12.6313 21.8183 12.5092 21.7875 12.4 21.7288C11.9856 21.5094 2.25531 16.1975 2.25531 9.63501C2.25705 8.09397 2.86999 6.61655 3.95967 5.52687C5.04935 4.43719 6.52677 3.82425 8.06781 3.82251C10.0037 3.82251 11.6987 4.65501 12.7553 6.0622C13.8119 4.65501 15.5069 3.82251 17.4428 3.82251C18.9838 3.82425 20.4613 4.43719 21.5509 5.52687C22.6406 6.61655 23.2536 8.09397 23.2553 9.63501Z" fill="#ffffff"/>
</svg>
